<svg xmlns="http://www.w3.org/2000/svg" fill="none" viewBox="0 0 158 32" height="32" width="158">
<path fill="#5E81F4" d="M23 0H9C4.02944 0 0 4.02944 0 9V23C0 27.9706 4.02944 32 9 32H23C27.9706 32 32 27.9706 32 23V9C32 4.02944 27.9706 0 23 0Z"></path>
<path fill="#6C8CF6" d="M16 0H9C4.02944 0 0 4.02944 0 9V13H10C13.3137 13 16 10.3137 16 7V0Z" clip-rule="evenodd" fill-rule="evenodd"></path>
<path fill="white" d="M13.9001 10.7898V15.3658H19.5161C19.9668 15.3658 20.3394 15.5131 20.6341 15.8078C20.9461 16.0851 21.1021 16.4491 21.1021 16.8998C21.1021 17.2811 20.9461 17.6191 20.6341 17.9138C20.3394 18.2085 19.9668 18.3558 19.5161 18.3558H13.9001V24.4138C13.9001 24.8645 13.7354 25.2458 13.4061 25.5578C13.0941 25.8525 12.7214 25.9998 12.2881 25.9998C11.8028 25.9998 11.4041 25.8525 11.0921 25.5578C10.7974 25.2631 10.6501 24.8818 10.6501 24.4138V9.3858C10.6501 8.93513 10.7974 8.56247 11.0921 8.2678C11.4041 7.9558 11.7854 7.7998 12.2361 7.7998H20.6861C21.1368 7.7998 21.5094 7.94713 21.8041 8.2418C22.1161 8.51913 22.2721 8.88313 22.2721 9.3338C22.2721 9.71513 22.1161 10.0531 21.8041 10.3478C21.5094 10.6425 21.1368 10.7898 20.6861 10.7898H13.9001Z"></path>
<path fill="#6C8CF6" d="M32 23H29C25.6863 23 23 25.6863 23 29V32C27.9706 32 32 27.9706 32 23Z" clip-rule="evenodd" fill-rule="evenodd"></path>
<path fill="#4368E0" d="M45.6001 11.9697V15.1377H49.4881C49.8001 15.1377 50.0581 15.2397 50.2621 15.4437C50.4781 15.6357 50.5861 15.8877 50.5861 16.1997C50.5861 16.4637 50.4781 16.6977 50.2621 16.9017C50.0581 17.1057 49.8001 17.2077 49.4881 17.2077H45.6001V21.4017C45.6001 21.7137 45.4861 21.9777 45.2581 22.1937C45.0421 22.3977 44.7841 22.4997 44.4841 22.4997C44.1481 22.4997 43.8721 22.3977 43.6561 22.1937C43.4521 21.9897 43.3501 21.7257 43.3501 21.4017V10.9977C43.3501 10.6857 43.4521 10.4277 43.6561 10.2237C43.8721 10.0077 44.1361 9.89969 44.4481 9.89969H50.2981C50.6101 9.89969 50.8681 10.0017 51.0721 10.2057C51.2881 10.3977 51.3961 10.6497 51.3961 10.9617C51.3961 11.2257 51.2881 11.4597 51.0721 11.6637C50.8681 11.8677 50.6101 11.9697 50.2981 11.9697H45.6001ZM60.1599 12.8697C60.4719 12.8697 60.7299 12.9777 60.9338 13.1937C61.1379 13.3977 61.2399 13.6557 61.2399 13.9677V18.5397C61.2399 19.8357 60.8799 20.8497 60.1599 21.5817C59.4519 22.3137 58.4379 22.6797 57.1179 22.6797C55.7979 22.6797 54.7839 22.3137 54.0759 21.5817C53.3679 20.8497 53.0139 19.8357 53.0139 18.5397V13.9677C53.0139 13.6557 53.1159 13.3977 53.3199 13.1937C53.5239 12.9777 53.7819 12.8697 54.0939 12.8697C54.4059 12.8697 54.6639 12.9777 54.8679 13.1937C55.0719 13.3977 55.1739 13.6557 55.1739 13.9677V18.5397C55.1739 19.2717 55.3359 19.8177 55.6599 20.1777C55.9839 20.5257 56.4699 20.6997 57.1179 20.6997C57.7779 20.6997 58.2699 20.5257 58.5939 20.1777C58.9179 19.8177 59.0799 19.2717 59.0799 18.5397V13.9677C59.0799 13.6557 59.1819 13.3977 59.3859 13.1937C59.5899 12.9777 59.8479 12.8697 60.1599 12.8697ZM68.7263 12.6897C69.9503 12.6897 70.7963 13.0557 71.2643 13.7877C71.7323 14.5077 71.9663 15.5097 71.9663 16.7937V21.4017C71.9663 21.7137 71.8643 21.9777 71.6603 22.1937C71.4563 22.3977 71.1983 22.4997 70.8863 22.4997C70.5743 22.4997 70.3163 22.3977 70.1123 22.1937C69.9083 21.9777 69.8063 21.7137 69.8063 21.4017V16.7937C69.8063 16.1337 69.6683 15.6177 69.3923 15.2457C69.1163 14.8617 68.6423 14.6697 67.9703 14.6697C67.2743 14.6697 66.7283 14.8737 66.3323 15.2817C65.9363 15.6777 65.7383 16.1817 65.7383 16.7937V21.4017C65.7383 21.7137 65.6363 21.9777 65.4323 22.1937C65.2283 22.3977 64.9703 22.4997 64.6583 22.4997C64.3463 22.4997 64.0883 22.3977 63.8843 22.1937C63.6803 21.9777 63.5783 21.7137 63.5783 21.4017V13.9677C63.5783 13.6557 63.6803 13.3977 63.8843 13.1937C64.0883 12.9777 64.3463 12.8697 64.6583 12.8697C64.9703 12.8697 65.2283 12.9777 65.4323 13.1937C65.6363 13.3977 65.7383 13.6557 65.7383 13.9677V14.2737C66.0623 13.8417 66.4823 13.4697 66.9983 13.1577C67.5263 12.8457 68.1023 12.6897 68.7263 12.6897ZM79.449 12.6897C80.673 12.6897 81.519 13.0557 81.987 13.7877C82.455 14.5077 82.689 15.5097 82.689 16.7937V21.4017C82.689 21.7137 82.587 21.9777 82.383 22.1937C82.179 22.3977 81.921 22.4997 81.609 22.4997C81.297 22.4997 81.039 22.3977 80.835 22.1937C80.631 21.9777 80.529 21.7137 80.529 21.4017V16.7937C80.529 16.1337 80.391 15.6177 80.115 15.2457C79.839 14.8617 79.365 14.6697 78.693 14.6697C77.997 14.6697 77.451 14.8737 77.055 15.2817C76.659 15.6777 76.461 16.1817 76.461 16.7937V21.4017C76.461 21.7137 76.359 21.9777 76.155 22.1937C75.951 22.3977 75.693 22.4997 75.381 22.4997C75.069 22.4997 74.811 22.3977 74.607 22.1937C74.403 21.9777 74.301 21.7137 74.301 21.4017V13.9677C74.301 13.6557 74.403 13.3977 74.607 13.1937C74.811 12.9777 75.069 12.8697 75.381 12.8697C75.693 12.8697 75.951 12.9777 76.155 13.1937C76.359 13.3977 76.461 13.6557 76.461 13.9677V14.2737C76.785 13.8417 77.205 13.4697 77.721 13.1577C78.249 12.8457 78.825 12.6897 79.449 12.6897ZM93.6636 17.4597C93.6516 17.7477 93.5376 17.9817 93.3216 18.1617C93.1056 18.3417 92.8536 18.4317 92.5656 18.4317H86.6256C86.7696 19.1397 87.0996 19.6977 87.6156 20.1057C88.1316 20.5017 88.7136 20.6997 89.3616 20.6997C89.8536 20.6997 90.2376 20.6577 90.5136 20.5737C90.7896 20.4777 91.0056 20.3817 91.1616 20.2857C91.3296 20.1777 91.4436 20.1057 91.5036 20.0697C91.7196 19.9617 91.9236 19.9077 92.1156 19.9077C92.3676 19.9077 92.5836 19.9977 92.7636 20.1777C92.9436 20.3577 93.0336 20.5677 93.0336 20.8077C93.0336 21.1317 92.8656 21.4257 92.5296 21.6897C92.1936 21.9657 91.7436 22.1997 91.1796 22.3917C90.6156 22.5837 90.0456 22.6797 89.4696 22.6797C88.4616 22.6797 87.5796 22.4697 86.8236 22.0497C86.0796 21.6297 85.5036 21.0537 85.0956 20.3217C84.6876 19.5777 84.4836 18.7437 84.4836 17.8197C84.4836 16.7877 84.6996 15.8817 85.1316 15.1017C85.5636 14.3217 86.1336 13.7277 86.8416 13.3197C87.5496 12.8997 88.3056 12.6897 89.1096 12.6897C89.9016 12.6897 90.6456 12.9057 91.3416 13.3377C92.0496 13.7697 92.6136 14.3517 93.0336 15.0837C93.4536 15.8157 93.6636 16.6077 93.6636 17.4597ZM89.1096 14.6697C87.7176 14.6697 86.8956 15.3237 86.6436 16.6317H91.3596V16.5057C91.3116 16.0017 91.0656 15.5697 90.6216 15.2097C90.1776 14.8497 89.6736 14.6697 89.1096 14.6697ZM97.805 21.4017C97.805 21.7137 97.697 21.9777 97.481 22.1937C97.277 22.3977 97.019 22.4997 96.707 22.4997C96.407 22.4997 96.155 22.3977 95.951 22.1937C95.747 21.9777 95.645 21.7137 95.645 21.4017V10.2777C95.645 9.96569 95.747 9.70769 95.951 9.50369C96.167 9.28769 96.431 9.17969 96.743 9.17969C97.043 9.17969 97.295 9.28769 97.499 9.50369C97.703 9.70769 97.805 9.96569 97.805 10.2777V21.4017ZM102.35 21.4017C102.35 21.7137 102.248 21.9777 102.044 22.1937C101.84 22.3977 101.582 22.4997 101.27 22.4997C100.958 22.4997 100.7 22.3977 100.496 22.1937C100.292 21.9777 100.19 21.7137 100.19 21.4017V13.9677C100.19 13.6557 100.292 13.3977 100.496 13.1937C100.7 12.9777 100.958 12.8697 101.27 12.8697C101.582 12.8697 101.84 12.9777 102.044 13.1937C102.248 13.3977 102.35 13.6557 102.35 13.9677V21.4017ZM101.252 11.6997C100.844 11.6997 100.556 11.6337 100.388 11.5017C100.22 11.3697 100.136 11.1357 100.136 10.7997V10.4577C100.136 10.1217 100.226 9.88769 100.406 9.75569C100.586 9.62369 100.874 9.55769 101.27 9.55769C101.69 9.55769 101.984 9.62369 102.152 9.75569C102.32 9.88769 102.404 10.1217 102.404 10.4577V10.7997C102.404 11.1477 102.314 11.3877 102.134 11.5197C101.966 11.6397 101.672 11.6997 101.252 11.6997ZM104.012 21.0057C103.904 20.8617 103.85 20.6817 103.85 20.4657C103.85 20.1537 104.006 19.8897 104.318 19.6737C104.486 19.5657 104.66 19.5117 104.84 19.5117C105.092 19.5117 105.332 19.6257 105.56 19.8537C105.92 20.2257 106.292 20.5017 106.676 20.6817C107.072 20.8617 107.546 20.9517 108.098 20.9517C109.034 20.9157 109.502 20.5617 109.502 19.8897C109.502 19.5417 109.34 19.2777 109.016 19.0977C108.704 18.9177 108.212 18.7377 107.54 18.5577C106.844 18.3657 106.274 18.1737 105.83 17.9817C105.398 17.7897 105.02 17.5017 104.696 17.1177C104.384 16.7217 104.228 16.1937 104.228 15.5337C104.228 14.9577 104.39 14.4597 104.714 14.0397C105.05 13.6077 105.482 13.2777 106.01 13.0497C106.55 12.8097 107.12 12.6897 107.72 12.6897C108.332 12.6897 108.944 12.8037 109.556 13.0317C110.168 13.2597 110.648 13.5957 110.996 14.0397C111.152 14.2317 111.23 14.4477 111.23 14.6877C111.23 14.9637 111.116 15.1917 110.888 15.3717C110.72 15.5037 110.528 15.5697 110.312 15.5697C110.048 15.5697 109.832 15.4857 109.664 15.3177C109.448 15.0537 109.166 14.8437 108.818 14.6877C108.482 14.5317 108.098 14.4537 107.666 14.4537C106.754 14.4537 106.298 14.7837 106.298 15.4437C106.298 15.7077 106.382 15.9237 106.55 16.0917C106.718 16.2477 106.928 16.3737 107.18 16.4697C107.444 16.5537 107.81 16.6617 108.278 16.7937C108.926 16.9737 109.466 17.1597 109.898 17.3517C110.33 17.5437 110.696 17.8377 110.996 18.2337C111.296 18.6297 111.446 19.1517 111.446 19.7997C111.446 20.3877 111.272 20.9037 110.924 21.3477C110.576 21.7797 110.126 22.1097 109.574 22.3377C109.034 22.5657 108.476 22.6797 107.9 22.6797C107.108 22.6797 106.37 22.5477 105.686 22.2837C105.002 22.0197 104.444 21.5937 104.012 21.0057ZM118.312 12.6897C119.5 12.6897 120.322 13.0557 120.778 13.7877C121.234 14.5077 121.462 15.5097 121.462 16.7937V21.4017C121.462 21.7137 121.36 21.9777 121.156 22.1937C120.952 22.3977 120.694 22.4997 120.382 22.4997C120.07 22.4997 119.812 22.3977 119.608 22.1937C119.404 21.9777 119.302 21.7137 119.302 21.4017V16.7937C119.302 16.1337 119.17 15.6177 118.906 15.2457C118.654 14.8617 118.204 14.6697 117.556 14.6697C116.884 14.6697 116.356 14.8737 115.972 15.2817C115.6 15.6777 115.414 16.1817 115.414 16.7937V21.4017C115.414 21.7137 115.312 21.9777 115.108 22.1937C114.904 22.3977 114.646 22.4997 114.334 22.4997C114.022 22.4997 113.764 22.3977 113.56 22.1937C113.356 21.9777 113.254 21.7137 113.254 21.4017V10.2777C113.254 9.96569 113.356 9.70769 113.56 9.50369C113.764 9.28769 114.022 9.17969 114.334 9.17969C114.646 9.17969 114.904 9.28769 115.108 9.50369C115.312 9.70769 115.414 9.96569 115.414 10.2777V14.2557C115.738 13.8237 116.146 13.4577 116.638 13.1577C117.142 12.8457 117.7 12.6897 118.312 12.6897Z"></path>
<path fill="#788091" d="M132.412 21H133.838V17.6761H135.777C137.97 17.6761 139.055 16.3512 139.055 14.6062C139.055 12.8658 137.979 11.5455 135.782 11.5455H132.412V21ZM133.838 16.4666V12.7688H135.629C137.042 12.7688 137.619 13.5352 137.619 14.6062C137.619 15.6772 137.042 16.4666 135.648 16.4666H133.838ZM141.997 11.5455H140.616V21H141.997V11.5455ZM148.346 18.0593C148.35 19.2642 147.455 19.8366 146.679 19.8366C145.825 19.8366 145.234 19.218 145.234 18.2532V13.9091H143.854V18.4194C143.854 20.1783 144.819 21.0923 146.18 21.0923C147.247 21.0923 147.972 20.5291 148.299 19.772H148.373V21H149.73V13.9091H148.346V18.0593ZM156.899 15.6403C156.612 14.5369 155.749 13.8168 154.217 13.8168C152.615 13.8168 151.479 14.6616 151.479 15.9173C151.479 16.9237 152.088 17.593 153.418 17.8885L154.618 18.1516C155.301 18.304 155.62 18.6087 155.62 19.0518C155.62 19.6012 155.034 20.0305 154.129 20.0305C153.302 20.0305 152.772 19.6751 152.605 18.978L151.271 19.1811C151.502 20.4368 152.545 21.1431 154.138 21.1431C155.851 21.1431 157.037 20.2337 157.037 18.9503C157.037 17.9485 156.4 17.3299 155.098 17.0298L153.972 16.7713C153.192 16.5866 152.855 16.3235 152.859 15.8434C152.855 15.2987 153.446 14.9109 154.23 14.9109C155.089 14.9109 155.486 15.3864 155.648 15.8619L156.899 15.6403Z"></path>
</svg>
