<svg width="30" height="30" viewBox="0 0 30 30" fill="none" xmlns="http://www.w3.org/2000/svg">
<path d="M21.5625 0H8.4375C3.7776 0 0 3.7776 0 8.4375V21.5625C0 26.2224 3.7776 30 8.4375 30H21.5625C26.2224 30 30 26.2224 30 21.5625V8.4375C30 3.7776 26.2224 0 21.5625 0Z" fill="#5E81F4"/>
<path fill-rule="evenodd" clip-rule="evenodd" d="M15 0H8.4375C3.7776 0 0 3.7776 0 8.4375V12.1875H9.375C12.4816 12.1875 15 9.6691 15 6.5625V0Z" fill="#6C8CF6"/>
<path d="M13.0313 10.1156V14.4056H18.2962C18.7188 14.4056 19.0681 14.5437 19.3444 14.82C19.6369 15.08 19.7831 15.4212 19.7831 15.8437C19.7831 16.2012 19.6369 16.5181 19.3444 16.7944C19.0681 17.0707 18.7188 17.2087 18.2962 17.2087H13.0313V22.8881C13.0313 23.3107 12.8768 23.6681 12.5681 23.9606C12.2756 24.2369 11.9262 24.375 11.52 24.375C11.065 24.375 10.6913 24.2369 10.3988 23.9606C10.1225 23.6843 9.98438 23.3269 9.98438 22.8881V8.79937C9.98438 8.37687 10.1225 8.0275 10.3988 7.75125C10.6913 7.45875 11.0487 7.3125 11.4713 7.3125H19.3931C19.8157 7.3125 20.165 7.45062 20.4412 7.72687C20.7338 7.98687 20.88 8.32812 20.88 8.75062C20.88 9.10812 20.7338 9.42497 20.4412 9.70125C20.165 9.97753 19.8157 10.1156 19.3931 10.1156H13.0313Z" fill="white"/>
<path fill-rule="evenodd" clip-rule="evenodd" d="M30 21.5625H27.1875C24.0809 21.5625 21.5625 24.0809 21.5625 27.1875V30C26.2224 30 30 26.2224 30 21.5625Z" fill="#6C8CF6"/>
</svg>
