<svg width="27" height="31" viewBox="0 0 27 31" fill="none" xmlns="http://www.w3.org/2000/svg">
<g clip-path="url(#clip0)">
<path d="M22.9905 6.35403C22.9698 6.20403 22.8384 6.12102 22.7298 6.11188C22.6214 6.10283 20.3275 5.9328 20.3275 5.9328C20.3275 5.9328 18.7343 4.35112 18.5594 4.17605C18.3845 4.00109 18.0427 4.05431 17.9101 4.09335C17.8906 4.0991 17.562 4.2005 17.0185 4.36869C16.4863 2.83725 15.5471 1.42992 13.8947 1.42992C13.8491 1.42992 13.8022 1.43177 13.7552 1.43444C13.2853 0.812969 12.7032 0.542969 12.2003 0.542969C8.3512 0.542969 6.51226 5.35479 5.93569 7.79999C4.44 8.26345 3.37747 8.59294 3.24175 8.63557C2.40689 8.89746 2.38048 8.92376 2.27086 9.71044C2.18836 10.306 0.00390625 27.1994 0.00390625 27.1994L17.0256 30.3887L26.2486 28.3935C26.2486 28.3935 23.0109 6.50403 22.9906 6.35403H22.9905ZM16.0777 4.65965L14.6374 5.10544C14.6379 5.00393 14.6385 4.90407 14.6385 4.79485C14.6385 3.84307 14.5063 3.07674 14.2944 2.46924C15.1458 2.57609 15.7128 3.54482 16.0777 4.65965ZM13.2382 2.65797C13.4749 3.25109 13.6288 4.10229 13.6288 5.25092C13.6288 5.30968 13.6283 5.36342 13.6278 5.41777C12.6911 5.7079 11.6733 6.0229 10.6532 6.33893C11.226 4.12838 12.2996 3.06071 13.2382 2.65797ZM12.0946 1.5754C12.2608 1.5754 12.4281 1.6318 12.5883 1.74204C11.3547 2.32252 10.0324 3.78451 9.47404 6.70407L7.12274 7.43229C7.77678 5.2054 9.3298 1.5754 12.0945 1.5754H12.0946Z" fill="#95BF46"/>
<path d="M22.7298 6.11221C22.6214 6.10317 20.3274 5.93313 20.3274 5.93313C20.3274 5.93313 18.7342 4.35146 18.5593 4.17639C18.4939 4.11125 18.4056 4.07786 18.3134 4.06348L17.0264 30.3888L26.2485 28.3938C26.2485 28.3938 23.0108 6.50437 22.9904 6.35437C22.9698 6.20437 22.8384 6.12135 22.7298 6.11221Z" fill="#5E8E3E"/>
<path d="M13.8947 11.2084L12.7575 14.5912C12.7575 14.5912 11.7611 14.0594 10.5398 14.0594C8.7492 14.0594 8.6591 15.1831 8.6591 15.4662C8.6591 17.0112 12.6865 17.6032 12.6865 21.2221C12.6865 24.0693 10.8806 25.9027 8.44571 25.9027C5.52379 25.9027 4.02954 24.0842 4.02954 24.0842L4.8119 21.4993C4.8119 21.4993 6.34786 22.818 7.64393 22.818C8.49081 22.818 8.8353 22.1512 8.8353 21.664C8.8353 19.6486 5.53119 19.5588 5.53119 16.2471C5.53119 13.4599 7.53174 10.7627 11.57 10.7627C13.126 10.7627 13.8947 11.2084 13.8947 11.2084Z" fill="white"/>
</g>
<defs>
<clipPath id="clip0">
<rect width="26.3014" height="30" fill="white" transform="translate(0 0.462891)"/>
</clipPath>
</defs>
</svg>
