<svg width="15" height="14" viewBox="0 0 15 14" fill="none" xmlns="http://www.w3.org/2000/svg">
  <path
    d="M11.8916 13.4429C10.9814 13.4429 10.1703 13.0286 9.45257 12.1943C8.73485 11.3657 8.37891 10.2683 8.37891 8.90219C8.37891 7.74323 9.03244 5.96839 10.3337 3.58327C11.6407 1.19255 12.6094 0 13.2454 0C13.6013 0 13.7822 0.179162 13.7822 0.53189C13.7822 0.627071 13.4088 1.39972 12.6677 2.85542C11.9208 4.31113 11.5532 5.45329 11.5532 6.27073C11.5532 6.9034 11.9733 7.42409 12.8194 7.82721C13.6597 8.23033 14.2257 8.65024 14.5057 9.08696C14.7858 9.52367 14.9259 9.99957 14.9259 10.5035C14.9259 11.4161 14.6458 12.1383 14.0856 12.659C13.5079 13.1797 12.7844 13.4429 11.8916 13.4429Z"
    fill="#5E81F4"/>
  <path
    d="M3.51271 13.4429C2.60244 13.4429 1.78553 13.0286 1.07365 12.1943C0.355937 11.3657 0 10.2683 0 8.90219C0 7.74323 0.653526 5.96839 1.95475 3.58327C3.25597 1.19255 4.23042 0 4.86061 0C5.21654 0 5.39743 0.179162 5.39743 0.53189C5.39743 0.627071 5.02399 1.39972 4.28294 2.85542C3.53605 4.31113 3.16844 5.45329 3.16844 6.27073C3.16844 6.9034 3.58856 7.42409 4.43465 7.82721C5.2749 8.23033 5.8409 8.65024 6.12098 9.08696C6.40106 9.52367 6.54111 9.99957 6.54111 10.5035C6.54111 11.4161 6.26102 12.1383 5.70086 12.659C5.14069 13.1797 4.40547 13.4429 3.51271 13.4429Z"
    fill="#5E81F4"/>
</svg>
