<svg width="30" height="30" viewBox="0 0 30 30" fill="none" xmlns="http://www.w3.org/2000/svg">
<path d="M25.8639 8.21689V28.0673C25.8639 29.1349 24.998 29.9999 23.9313 29.9999H6.06858C5.00106 29.9999 4.13599 29.1349 4.13599 28.0673V1.9326C4.13593 0.865078 5.00101 0 6.06858 0H17.647L25.8639 8.21689Z" fill="#28B446"/>
<path d="M18.7681 8.03863L25.8639 10.9619V8.21717L21.8408 7.0293L18.7681 8.03863Z" fill="#219B38"/>
<path d="M25.8639 8.21689H19.5796C18.512 8.21689 17.647 7.35182 17.647 6.2843V0L25.8639 8.21689Z" fill="#6ACE7C"/>
<path d="M19.7529 14.9385H10.2467C9.90572 14.9385 9.62939 15.2149 9.62939 15.5558V23.8274C9.62939 24.1683 9.90572 24.4448 10.2467 24.4448H19.7529C20.0939 24.4448 20.3703 24.1684 20.3703 23.8274V15.5558C20.3703 15.2149 20.0939 14.9385 19.7529 14.9385ZM10.8641 18.9074H14.3825V20.4761H10.8641V18.9074ZM15.6171 18.9074H19.1356V20.4761H15.6171V18.9074ZM19.1356 17.6727H15.6172V16.1732H19.1356V17.6727ZM14.3825 16.1732V17.6727H10.8641V16.1732H14.3825ZM10.8641 21.7107H14.3825V23.2103H10.8641V21.7107ZM15.6171 23.2102V21.7107H19.1356V23.2102H15.6171Z" fill="white"/>
</svg>
