<svg width="14" height="12" viewBox="0 0 14 12" fill="none" xmlns="http://www.w3.org/2000/svg">
<path d="M13.0016 1.90215C12.5234 2.1084 12.0031 2.25684 11.4672 2.31465C12.0236 1.98409 12.4403 1.46184 12.6391 0.845905C12.1169 1.15651 11.5449 1.37432 10.9484 1.48965C10.6991 1.22313 10.3976 1.01081 10.0627 0.865917C9.72771 0.721022 9.36651 0.646661 9.00156 0.647467C7.525 0.647467 6.3375 1.84434 6.3375 3.31309C6.3375 3.51934 6.3625 3.72559 6.40313 3.92403C4.19219 3.8084 2.22031 2.75215 0.909375 1.13497C0.670508 1.54296 0.545334 2.00751 0.546875 2.48028C0.546875 3.40528 1.01719 4.2209 1.73438 4.70059C1.31173 4.68395 0.898973 4.56778 0.529688 4.36153V4.39434C0.529688 5.68965 1.44531 6.76309 2.66563 7.00997C2.4365 7.06948 2.20079 7.09993 1.96406 7.10059C1.79063 7.10059 1.62656 7.0834 1.46094 7.05997C1.79844 8.11622 2.78125 8.8834 3.95156 8.9084C3.03594 9.62559 1.88906 10.0475 0.64375 10.0475C0.420313 10.0475 0.214063 10.0397 0 10.0147C1.18125 10.7725 2.58281 11.21 4.09219 11.21C8.99219 11.21 11.6734 7.15059 11.6734 3.62715C11.6734 3.51153 11.6734 3.3959 11.6656 3.28028C12.1844 2.90059 12.6391 2.43028 13.0016 1.90215Z" fill="white"/>
</svg>
