<svg width="30" height="31" viewBox="0 0 30 31" fill="none" xmlns="http://www.w3.org/2000/svg">
<g id="Iconly/Two-tone/3 User">
<g id="3 User">
<path id="Stroke 1" opacity="0.4" d="M22.3599 14.0845C24.1036 13.8395 25.4461 12.3445 25.4499 10.5333C25.4499 8.74828 24.1486 7.26828 22.4424 6.98828" stroke="#5E81F4" stroke-width="2" stroke-linecap="round" stroke-linejoin="round"/>
<path id="Stroke 3" d="M24.6606 18.2754C26.3494 18.5279 27.5281 19.1191 27.5281 20.3379C27.5281 21.1766 26.9731 21.7216 26.0756 22.0641" stroke="#5E81F4" stroke-width="2" stroke-linecap="round" stroke-linejoin="round"/>
<path id="Stroke 5" fill-rule="evenodd" clip-rule="evenodd" d="M14.8584 18.793C10.8409 18.793 7.40967 19.4017 7.40967 21.833C7.40967 24.263 10.8197 24.8892 14.8584 24.8892C18.8759 24.8892 22.3059 24.2867 22.3059 21.8542C22.3059 19.4217 18.8972 18.793 14.8584 18.793Z" stroke="#5E81F4" stroke-width="2" stroke-linecap="round" stroke-linejoin="round"/>
<path id="Stroke 7" opacity="0.4" fill-rule="evenodd" clip-rule="evenodd" d="M14.8587 15.3229C17.495 15.3229 19.6325 13.1866 19.6325 10.5491C19.6325 7.91289 17.495 5.77539 14.8587 5.77539C12.2225 5.77539 10.085 7.91289 10.085 10.5491C10.075 13.1766 12.1962 15.3141 14.8237 15.3229H14.8587Z" stroke="#5E81F4" stroke-width="2" stroke-linecap="round" stroke-linejoin="round"/>
<path id="Stroke 9" opacity="0.4" d="M7.35611 14.0845C5.61111 13.8395 4.26986 12.3445 4.26611 10.5333C4.26611 8.74828 5.56736 7.26828 7.27361 6.98828" stroke="#5E81F4" stroke-width="2" stroke-linecap="round" stroke-linejoin="round"/>
<path id="Stroke 11" d="M5.055 18.2754C3.36625 18.5279 2.1875 19.1191 2.1875 20.3379C2.1875 21.1766 2.7425 21.7216 3.64 22.0641" stroke="#5E81F4" stroke-width="2" stroke-linecap="round" stroke-linejoin="round"/>
</g>
</g>
</svg>
